<?xml version="1.0" encoding="UTF-8" standalone="no"?>
<svg
   xmlns:dc="http://purl.org/dc/elements/1.1/"
   xmlns:cc="http://creativecommons.org/ns#"
   xmlns:rdf="http://www.w3.org/1999/02/22-rdf-syntax-ns#"
   xmlns:svg="http://www.w3.org/2000/svg"
   xmlns="http://www.w3.org/2000/svg"
   viewBox="0 0 712.44269 652.96411"
   width="712.44269"
   id="blobSvg"
   version="1.1"
   height="652.96411">
  <metadata
     id="metadata13">
    <rdf:RDF>
      <cc:Work
         rdf:about="">
        <dc:format>image/svg+xml</dc:format>
        <dc:type
           rdf:resource="http://purl.org/dc/dcmitype/StillImage" />
        <dc:title></dc:title>
      </cc:Work>
    </rdf:RDF>
  </metadata>
  <defs
     id="defs7">
    <linearGradient
       id="gradient"
       x1="38.896004"
       y1="53.225796"
       x2="41.466152"
       y2="470.09814"
       gradientTransform="matrix(-1.084803,0,0,0.92182633,607.2038,90.077053)"
       gradientUnits="userSpaceOnUse">
      <stop
         offset="0%"
         style="stop-color:#ff00cc;stop-opacity:1"
         id="stop2" />
      <stop
         offset="100%"
         style="stop-color:#333399;stop-opacity:1"
         id="stop4" />
    </linearGradient>
    <filter
       style="color-interpolation-filters:sRGB"
       id="filter870"
       x="-0.28399366"
       width="1.5679873"
       y="-0.32676905"
       height="1.6535381">
      <feGaussianBlur
         stdDeviation="53.765638"
         id="feGaussianBlur872" />
    </filter>
  </defs>
  <path
     id="blob"
     d="m 155.2038,405.07705 c 31.33333,43.33333 67.16667,75.33333 107.5,96 40.33333,20.66667 96.27385,30.71747 139.94052,22.71747 43.66667,-8 100.06196,7.64932 135.72863,-23.68401 35.66666,-31.33334 23.16418,-110.86679 23.83085,-160.53346 0.66667,-49.66667 -17.83333,-88.83333 -55.5,-117.5 -37.66667,-28.66667 -77.66667,-48.66667 -120,-60 -42.33333,-11.33333 -123.57869,-41.69455 -171.24535,-26.02788 -47.66667,15.66667 -73.27695,50.0254 -97.27695,99.35874 -23.999992,49.33333 5.68897,126.33581 37.0223,169.66914 z"
     fill="url(#gradient)"
     style="opacity:0.85;fill:url(#gradient);filter:url(#filter870)" />
</svg>
