<?xml version="1.0" encoding="UTF-8" standalone="no"?>
<svg
   xmlns:dc="http://purl.org/dc/elements/1.1/"
   xmlns:cc="http://creativecommons.org/ns#"
   xmlns:rdf="http://www.w3.org/1999/02/22-rdf-syntax-ns#"
   xmlns:svg="http://www.w3.org/2000/svg"
   xmlns="http://www.w3.org/2000/svg"
   viewBox="0 0 1303.0774 778.23945"
   width="1303.0774"
   id="blobSvg"
   version="1.1"
   height="778.23944">
  <metadata
     id="metadata13">
    <rdf:RDF>
      <cc:Work
         rdf:about="">
        <dc:format>image/svg+xml</dc:format>
        <dc:type
           rdf:resource="http://purl.org/dc/dcmitype/StillImage" />
        <dc:title></dc:title>
      </cc:Work>
    </rdf:RDF>
  </metadata>
  <defs
     id="defs7">
    <linearGradient
       id="gradient"
       x1="50.572716"
       y1="17.886028"
       x2="50.572716"
       y2="466.13"
       gradientTransform="matrix(0.36354526,0.34073134,-0.42134125,0.44955247,216.35408,-39.100258)"
       gradientUnits="userSpaceOnUse">
      <stop
         offset="0%"
         style="stop-color:#ffe000;stop-opacity:1"
         id="stop2" />
      <stop
         id="stop882"
         style="stop-color:#799f0c;stop-opacity:1"
         offset="0.47903991" />
      <stop
         offset="100%"
         style="stop-color:#00416a;stop-opacity:1"
         id="stop4" />
    </linearGradient>
    <linearGradient
       gradientUnits="userSpaceOnUse"
       gradientTransform="matrix(0.4361172,-0.24096635,0.29797395,0.53929342,154.9002,226.1908)"
       y2="466.13"
       x2="50.572716"
       y1="17.886028"
       x1="50.572716"
       id="gradient-9">
      <stop
         id="stop2-5"
         style="stop-color:#f27121;stop-opacity:1"
         offset="0%" />
      <stop
         offset="0.44205746"
         style="stop-color:#e94057;stop-opacity:1"
         id="stop884" />
      <stop
         id="stop4-3"
         style="stop-color:#8a2387;stop-opacity:1"
         offset="100%" />
    </linearGradient>
    <linearGradient
       gradientUnits="userSpaceOnUse"
       gradientTransform="matrix(0.36354526,0.34073134,-0.42134125,0.44955247,187.21326,109.79532)"
       y2="466.13"
       x2="50.572716"
       y1="17.886028"
       x1="50.572716"
       id="gradient-91">
      <stop
         id="stop2-1"
         style="stop-color:#f12711;stop-opacity:1"
         offset="0%" />
      <stop
         id="stop4-31"
         style="stop-color:#f5af19;stop-opacity:1"
         offset="100%" />
    </linearGradient>
    <filter
       style="color-interpolation-filters:sRGB"
       id="filter927"
       x="-0.31394935"
       width="1.6278987"
       y="-0.32559678"
       height="1.6511936">
      <feGaussianBlur
         stdDeviation="53.610283"
         id="feGaussianBlur929" />
    </filter>
  </defs>
  <g
     id="g889"
     style="opacity:0.85;filter:url(#filter927)"
     transform="matrix(-2.0148239,-0.49296082,0.2434906,-0.99519206,1065.9038,774.80112)">
    <path
       style="fill:url(#gradient);stroke-width:0.554073"
       fill="url(#gradient)"
       d="m 277.97654,249.75182 q -22.87107,7.2995 -41.37546,24.76248 -18.5044,17.46299 -39.07822,7.48889 -20.5738,-9.9741 -44.66159,-7.45747 -24.08777,2.51664 -37.00028,-15.25167 -12.9125,-17.76831 -18.121702,-38.4348 -5.209201,-20.66649 -12.17432,-41.35982 -6.96512,-20.69332 7.330419,-40.88687 14.295543,-20.19355 27.116003,-36.91294 12.82047,-16.719389 29.42131,-29.490908 16.60084,-12.77152 35.42807,-21.837465 18.82724,-9.065948 39.56821,-10.672142 20.74097,-1.606192 40.07346,4.371428 19.3325,5.977626 38.34003,16.102623 19.00753,10.124998 28.33437,30.198783 9.32685,20.073791 1.38766,42.987021 -7.93919,22.91323 -13.2532,43.02551 -5.31401,20.11227 -11.88885,43.09007 -6.57484,22.97778 -29.44591,30.27728 z"
       id="blob" />
    <path
       id="blob-9"
       d="m 448.6926,256.50381 q -0.0975,24.00748 10.81931,46.98991 10.91677,22.98244 -4.90769,39.4855 -15.82445,16.50305 -20.84705,40.19542 -5.02258,23.69237 -25.90355,30.5064 -20.88096,6.81403 -42.14734,5.40665 -21.26637,-1.40739 -43.09895,-1.15242 -21.83258,0.25495 -36.64322,-19.56391 -14.81064,-19.81884 -26.77012,-37.16454 -11.95946,-17.3457 -18.99885,-37.0725 -7.03937,-19.72681 -9.86769,-40.43083 -2.82831,-20.70404 2.02996,-40.93187 4.85827,-20.22781 16.4982,-36.78043 11.63994,-16.55263 27.12569,-31.51904 15.48574,-14.96641 37.45609,-17.65911 21.97035,-2.69271 41.32575,11.91605 19.35539,14.60877 36.85423,25.85742 17.49886,11.24867 37.33578,24.57925 19.83691,13.33057 19.73945,37.33805 z"
       fill="url(#gradient)"
       style="fill:url(#gradient-9);stroke-width:0.554073" />
    <path
       id="blob-8"
       d="m 248.83571,398.6474 q -22.87107,7.2995 -41.37546,24.76248 -18.5044,17.46299 -39.07822,7.48889 -20.5738,-9.9741 -44.66158,-7.45747 -24.08778,2.51664 -37.000289,-15.25167 -12.912501,-17.76831 -18.121702,-38.4348 -5.2092,-20.66649 -12.174318,-41.35981 -6.965124,-20.69333 7.330414,-40.88689 14.295544,-20.19354 27.116006,-36.91293 12.820459,-16.71939 29.421309,-29.49091 16.60084,-12.77152 35.42808,-21.83747 18.82723,-9.06595 39.5682,-10.67214 20.74097,-1.60619 40.07346,4.37143 19.3325,5.97763 38.34003,16.10262 19.00752,10.12501 28.33437,30.19879 9.32685,20.07379 1.38766,42.98702 -7.93919,22.91323 -13.25319,43.0255 -5.31401,20.11228 -11.88886,43.09008 -6.57484,22.97778 -29.44591,30.27728 z"
       fill="url(#gradient)"
       style="fill:url(#gradient-91);stroke-width:0.554073" />
  </g>
</svg>
