<?xml version="1.0" encoding="UTF-8" standalone="no"?>
<svg
   xmlns:dc="http://purl.org/dc/elements/1.1/"
   xmlns:cc="http://creativecommons.org/ns#"
   xmlns:rdf="http://www.w3.org/1999/02/22-rdf-syntax-ns#"
   xmlns:svg="http://www.w3.org/2000/svg"
   xmlns="http://www.w3.org/2000/svg"
   xmlns:xlink="http://www.w3.org/1999/xlink"
   xmlns:sodipodi="http://sodipodi.sourceforge.net/DTD/sodipodi-0.dtd"
   xmlns:inkscape="http://www.inkscape.org/namespaces/inkscape"
   inkscape:version="1.0 (4035a4fb49, 2020-05-01)"
   sodipodi:docname="illustration_brands.svg"
   id="svg8"
   version="1.1"
   viewBox="0 0 504.28687 105.84867"
   height="105.84867mm"
   width="504.28687mm">
  <sodipodi:namedview
     inkscape:current-layer="layer1"
     inkscape:window-maximized="1"
     inkscape:window-y="-8"
     inkscape:window-x="-8"
     inkscape:cy="200.02898"
     inkscape:cx="952.98305"
     inkscape:zoom="0.55037705"
     showgrid="false"
     id="namedview24"
     inkscape:window-height="705"
     inkscape:window-width="1366"
     inkscape:pageshadow="2"
     inkscape:pageopacity="0"
     guidetolerance="10"
     gridtolerance="10"
     objecttolerance="10"
     borderopacity="1"
     bordercolor="#666666"
     pagecolor="#ffffff" />
  <defs
     id="defs2">
    <linearGradient
       id="linearGradient34">
      <stop
         style="stop-color:#fd047b;stop-opacity:1"
         offset="0"
         id="stop30" />
      <stop
         id="stop1529"
         offset="0.50583661"
         style="stop-color:#fd4e64;stop-opacity:1;" />
      <stop
         style="stop-color:#fe984e;stop-opacity:1"
         offset="1"
         id="stop32" />
    </linearGradient>
    <linearGradient
       xlink:href="#linearGradient34"
       id="linearGradient36"
       x1="6.0476193"
       y1="78.529755"
       x2="200.32738"
       y2="272.80951"
       gradientUnits="userSpaceOnUse" />
    <filter
       id="filter2587"
       style="color-interpolation-filters:sRGB;">
      <feFlood
         id="feFlood2577"
         result="flood"
         flood-color="rgb(0,0,0)"
         flood-opacity="0.498039" />
      <feComposite
         id="feComposite2579"
         result="composite1"
         operator="in"
         in2="flood"
         in="SourceGraphic" />
      <feGaussianBlur
         id="feGaussianBlur2581"
         result="blur"
         stdDeviation="12.5"
         in="composite1" />
      <feOffset
         id="feOffset2583"
         result="offset"
         dy="0.1"
         dx="0.1" />
      <feComposite
         id="feComposite2585"
         result="composite2"
         operator="over"
         in2="offset"
         in="SourceGraphic" />
    </filter>
  </defs>
  <metadata
     id="metadata5">
    <rdf:RDF>
      <cc:Work
         rdf:about="">
        <dc:format>image/svg+xml</dc:format>
        <dc:type
           rdf:resource="http://purl.org/dc/dcmitype/StillImage" />
        <dc:title />
      </cc:Work>
    </rdf:RDF>
  </metadata>
  <g
     transform="translate(146.12171,-63.184302)"
     id="layer1">
    <g
       id="layer1-9"
       transform="matrix(0.44188172,0,0,0.44188172,59.11995,38.483439)">
      <path
         style="opacity:1;fill:url(#linearGradient36);fill-opacity:1;fill-rule:nonzero;stroke-width:0.26458332;filter:url(#filter2587)"
         d="m 58.208329,78.529755 h 89.958331 c 28.89704,0 52.16071,21.577905 52.16071,48.380955 v 97.51784 c 0,26.80305 -23.26367,48.38096 -52.16071,48.38096 H 58.208329 c -28.897033,0 -52.1607097,-21.57791 -52.1607097,-48.38096 v -97.51784 c 0,-26.80305 23.2636767,-48.380955 52.1607097,-48.380955 z"
         id="rect28" />
      <path
         id="path3751"
         d="m 103.18752,245.9732 c -10.826753,0 -20.950459,-2.39032 -30.089909,-6.74915 v -23.34077 c 8.43638,6.32731 18.84132,9.9831 30.089909,9.9831 27.69959,0 50.19678,-22.49717 50.19678,-50.19678 0,-27.6996 -22.49719,-50.19673 -50.19678,-50.19673 -3.374618,0 -6.749138,0.28113 -9.983103,0.98426 v 20.80984 c 3.093285,-1.12487 6.467925,-1.68728 9.983103,-1.68728 16.59158,0 30.08986,13.49829 30.08986,30.08991 0,16.59169 -13.49828,30.08997 -30.08986,30.08997 -16.029219,0 -29.246269,-12.65464 -30.089909,-28.40268 v -1.68729 0 c 0,-0.28112 0,-0.56241 0,-0.98425 v -39.22937 c -12.232848,9.13946 -20.106868,23.76261 -20.106868,40.21362 v 49.21253 c -12.37347,-12.65465 -20.10682,-30.08991 -20.10682,-49.21253 0,-28.12139 16.45107,-52.30586 40.213688,-63.5544 6.18662,-2.95276 12.93582,-5.06184 20.106806,-6.04611 3.233965,-0.42196 6.608485,-0.70303 9.983103,-0.70303 38.80752,0 70.30355,31.49597 70.30355,70.30354 0,38.80758 -31.49603,70.3036 -70.30355,70.3036 z m -9.983103,-70.3036 v 0 c 0,5.62433 4.499395,10.12372 9.983103,10.12372 5.62421,0 10.12367,-4.49939 10.12367,-9.9831 0,-5.62427 -4.49946,-9.98308 -10.12367,-9.98308 -5.343098,0 -9.701873,4.21819 -9.983103,9.56129 0,-0.14083 0,0.14083 0,0.28112 z"
         style="fill:#ffffff;stroke-width:1.40607154" />
    </g>
    <path
       style="stroke-width:2.80169678;fill:#2f2e41;fill-opacity:1"
       d="m -14.693659,88.837607 -16.810182,10.70801 16.810182,10.708113 16.8129876,-10.708113 z m 33.620363,0 L 2.1165225,99.545617 18.926704,110.25373 35.736886,99.545617 Z m -50.430545,32.126983 16.810182,10.70812 16.8129876,-10.70812 -16.8129876,-10.708 z m 50.430545,-10.708 -16.8101815,10.708 16.8101815,10.70812 16.810182,-10.70812 z M -14.693659,135.24483 2.1193286,145.95294 18.92951,135.24483 2.1193286,124.53682 Z"
       id="path1590" />
    <path
       style="stroke-width:2.52515674;fill:#2f2e41;fill-opacity:1"
       d="M 186.13254,141.93581 196.23316,124.439 h 39.30912 l -10.10063,17.49681 z m 9.00471,-17.49681 -10.09558,17.49681 -10.10315,-17.49681 19.65834,-34.056793 10.0981,17.501863 z m 39.85706,-0.94694 H 214.79559 L 195.13725,89.435261 h 20.2063 l 19.65834,34.054269 h -0.007 z"
       id="path1615" />
    <path
       style="stroke-width:3.4800694;image-rendering:auto;fill:#2f2e41;fill-opacity:1"
       d="m -78.423519,109.77234 q 3.344418,0.2019 6.218879,1.62867 2.874593,1.42683 5.018272,3.70975 2.140258,2.28641 3.36178,5.26187 1.224545,2.97895 1.224545,6.31981 0,3.50791 -1.346737,6.58779 -1.343318,3.07985 -3.65062,5.38365 -2.303751,2.30381 -5.380112,3.65059 -3.07991,1.34679 -6.587821,1.34679 H -125.2413 q -4.32221,0 -8.11541,-1.65302 -3.79332,-1.65303 -6.6261,-4.48929 -2.83631,-2.83279 -4.48925,-6.62259 -1.64965,-3.79328 -1.64965,-8.11551 0,-3.42788 1.07855,-6.56689 1.08249,-3.14251 2.99994,-5.76996 1.91403,-2.63094 4.6075,-4.61109 2.6936,-1.97667 5.95451,-2.99634 1.51022,-0.44891 2.95798,-0.65081 1.44775,-0.20887 2.99638,-0.28542 h 0.0395 q 1.79223,-2.735344 4.20041,-4.91735 2.40477,-2.181995 5.22017,-3.709743 2.81185,-1.531236 5.93346,-2.324691 3.11819,-0.796942 6.42078,-0.796942 4.447561,0 8.547088,1.451185 4.095987,1.447714 7.461186,4.036886 3.365332,2.589171 5.769967,6.194525 2.408186,3.61231 3.50791,7.93455 z M -103.70612,95.375297 q -4.61118,0 -8.76978,1.893152 -4.15871,1.896639 -7.09933,5.446311 1.55205,0.40722 2.95798,1.04053 1.40947,0.6299 2.75621,1.44772 l 16.634754,9.95301 9.504109,-4.00208 q 0.939125,-0.40723 1.896534,-0.70987 0.96017,-0.30621 2.018462,-0.51152 -1.019359,-3.26084 -2.975476,-5.93353 -1.959274,-2.67269 -4.590141,-4.58672 -2.62745,-1.917527 -5.769961,-2.978949 -3.138981,-1.057897 -6.563361,-1.057897 z m -34.01423,36.826103 34.50142,-14.56062 -13.33572,-7.99372 q -2.03924,-1.22153 -4.28038,-1.87576 -2.2447,-0.65423 -4.61119,-0.65423 -3.18079,0 -5.99264,1.26678 -2.81541,1.26321 -4.91384,3.40351 -2.10198,2.14371 -3.3235,4.99738 -1.22455,2.85366 -1.22455,5.99617 0,2.44648 0.81417,4.95213 0.81812,2.50913 2.36649,4.46842 z m 58.155412,6.23976 q 1.959274,0 3.751505,-0.61253 1.795781,-0.61254 3.344418,-1.79572 l -25.160931,-15.04781 -35.848294,15.08957 q 1.83406,1.14142 3.9325,1.75396 2.10197,0.60898 4.30484,0.60898 z m 10.481904,-6.44509 q 1.26269,-2.53001 1.26269,-5.30014 0,-2.69359 -1.019359,-4.89647 -1.019359,-2.20288 -2.752795,-3.73063 -1.733043,-1.53123 -4.057707,-2.36645 -2.324796,-0.83522 -4.893054,-0.83522 -1.468535,0 -2.916287,0.34803 -1.447753,0.34803 -2.836186,0.87705 -1.385144,0.52901 -2.731882,1.16233 -1.343317,0.6299 -2.648361,1.2006 z"
       id="path1640" />
    <path
       style="stroke-width:3.76482272;fill:#2f2e41;fill-opacity:1"
       d="m 271.41941,93.599683 c -2.033,0 -3.61046,1.581226 -3.61046,3.384584 v 28.420653 a 17.280537,17.280537 0 0 0 17.36713,16.91912 17.75867,17.75867 0 0 0 15.56754,-9.25017 c 2.93279,5.41382 8.79839,9.25017 15.33787,9.25017 9.70196,0 17.5968,-7.66895 17.5968,-17.36713 0.22582,-9.25017 -7.66895,-16.92288 -17.36713,-16.92288 -6.54327,0 -12.40509,3.61046 -15.33789,9.02428 -2.93657,-5.41382 -8.80214,-9.02428 -15.56754,-9.02428 -4.06224,0 -7.67272,1.35533 -10.60551,3.38457 V 96.984267 a 3.4636371,3.4636371 0 0 0 -3.38081,-3.384584 z m 62.65796,14.069157 a 3.5765818,3.5765818 0 0 0 -2.65044,0.59478 c -1.35534,1.12938 -1.80337,3.38458 -0.67761,4.96204 l 9.02428,11.73119 -9.02051,11.72743 c -1.12953,1.58122 -0.90357,3.61422 0.67759,4.74367 1.57747,1.12938 3.82506,1.12198 4.95451,-0.45932 l 7.67648,-9.92408 7.89106,10.15374 c 1.12938,1.35534 3.38459,1.57746 4.96205,0.45179 1.35533,-1.12939 1.58122,-3.16246 0.45561,-4.73993 l -8.80215,-11.72743 8.80215,-11.50906 c 1.12939,-1.57747 1.12199,-3.83258 -0.45561,-4.96203 -1.80712,-1.12937 -3.83637,-0.90355 -4.96205,0.67773 l -7.89106,9.69819 -7.68023,-10.14619 c -0.56093,-0.67759 -1.40429,-1.12938 -2.30407,-1.27252 z m -48.90129,7.13057 c 5.86558,0 10.60551,4.74368 10.60551,10.38339 0,5.8656 -4.73993,10.37586 -10.60551,10.37586 -5.8656,0 -10.60174,-4.51026 -10.60174,-10.37586 0,-5.63971 4.73614,-10.38339 10.60174,-10.38339 z m 31.13508,0 c 5.86559,0 10.60173,4.74368 10.60173,10.38339 -0.22581,5.8656 -4.96202,10.37586 -10.60173,10.37586 -5.8656,0 -10.6055,-4.51026 -10.6055,-10.37586 0,-5.63971 4.7399,-10.38339 10.6055,-10.38339 z"
       id="path1665" />
  </g>
</svg>
