<?xml version="1.0" encoding="UTF-8" standalone="no"?>
<svg
   xmlns:dc="http://purl.org/dc/elements/1.1/"
   xmlns:cc="http://creativecommons.org/ns#"
   xmlns:rdf="http://www.w3.org/1999/02/22-rdf-syntax-ns#"
   xmlns:svg="http://www.w3.org/2000/svg"
   xmlns="http://www.w3.org/2000/svg"
   xmlns:xlink="http://www.w3.org/1999/xlink"
   xmlns:sodipodi="http://sodipodi.sourceforge.net/DTD/sodipodi-0.dtd"
   xmlns:inkscape="http://www.inkscape.org/namespaces/inkscape"
   id="svg26"
   version="1.1"
   viewBox="0 0 321.1271 321.12727"
   height="321.12726mm"
   width="321.12711mm"
   sodipodi:docname="Logo_non_descriptive.svg"
   inkscape:version="1.0 (4035a4fb49, 2020-05-01)">
  <sodipodi:namedview
     inkscape:document-rotation="0"
     pagecolor="#ffffff"
     bordercolor="#666666"
     borderopacity="1"
     objecttolerance="10"
     gridtolerance="10"
     guidetolerance="10"
     inkscape:pageopacity="0"
     inkscape:pageshadow="2"
     inkscape:window-width="1366"
     inkscape:window-height="705"
     id="namedview61"
     showgrid="false"
     inkscape:zoom="0.36388287"
     inkscape:cx="488.24701"
     inkscape:cy="661.59735"
     inkscape:window-x="-8"
     inkscape:window-y="-8"
     inkscape:window-maximized="1"
     inkscape:current-layer="g1991"
     fit-margin-top="35.1"
     fit-margin-left="35.1"
     fit-margin-right="35.1"
     fit-margin-bottom="35.1"
     lock-margins="true" />
  <defs
     id="defs20">
    <linearGradient
       id="linearGradient34">
      <stop
         style="stop-color:#fd047b;stop-opacity:1"
         offset="0"
         id="stop956" />
      <stop
         id="stop958"
         offset="0.66373509"
         style="stop-color:#fd4e64;stop-opacity:1;" />
      <stop
         style="stop-color:#fe984e;stop-opacity:1"
         offset="1"
         id="stop960" />
    </linearGradient>
    <linearGradient
       id="linearGradient34-6">
      <stop
         id="stop30"
         offset="0"
         style="stop-color:#fd047b;stop-opacity:1" />
      <stop
         style="stop-color:#fd4e64;stop-opacity:1;"
         offset="0.50583661"
         id="stop1529" />
      <stop
         id="stop32"
         offset="1"
         style="stop-color:#fe984e;stop-opacity:1" />
    </linearGradient>
    <linearGradient
       gradientUnits="userSpaceOnUse"
       y2="257.6427"
       x2="184.79944"
       y1="86.113167"
       x1="6.7698488"
       id="linearGradient36"
       xlink:href="#linearGradient34-6" />
    <clipPath
       clipPathUnits="userSpaceOnUse"
       id="clipPath113">
      <g
         id="g117"
         style="fill:#000000;stroke:none"
         transform="matrix(0.03439583,0,0,-0.03439583,-5.864863,297.31878)">
        <path
           d="m 4655.0465,2463.15 c -5.27,-5.03 -13.02,-9.23 -20.1,-10.99 -7.55,-1.88 -16.88,-1.72 -24.43,0.16 -8.4,2.09 -17.51,6.92 -24.2001,12.42 -7.59,6.26 -14.72,15.45 -19.24,24.18 -5.15,9.96 -8.72,22.66 -9.9,33.81 -1.35,12.65 -0.12,27.52 2.92,39.87 3.43,13.92 10.24,29.23 17.98,41.3 8.65,13.47 21.2301,27.27 33.6301,37.39 13.74,11.2 31.64,21.51 48.12,28.06 18.1,7.19 40.22,12.17 59.64,13.73 21.2,1.7 45.86,-0.11 66.64,-4.59 22.55,-4.87 47.61,-14.37 67.85,-25.43 21.82,-11.94 44.87,-29.38 62.48,-46.96 18.89,-18.87 37.43,-43.73 50.35,-67.1 13.81,-24.98 25.52,-55.98 31.92,-83.8 6.82,-29.62 9.76,-64.77 8.23,-95.12 -1.63,-32.2001 -8.78,-68.9301 -19.09,-99.4701 -10.92,-32.31 -28.7,-67.65 -47.94,-95.81 -20.29,-29.69 -48.4,-60.53 -75.93,-83.66 -28.96,-24.3399 -66.15,-47.6499 -100.58,-63.3299 -36.13,-16.45 -80.27,-29.58 -119.48,-35.78 -41.07,-6.49 -89.2801,-7.4 -130.5901,-2.71 -43.17,4.9 -91.99,17.38 -132.31,33.59 -42.06,16.9 -87.7,42.98 -123.77,70.4399 -37.56,28.6 -76.2,67.38 -104.85,104.9 -29.7899,39.03 -57.8699,88.54 -76.2899,134.05 -19.12,47.2601 -33.67,104.5401 -39.64,155.1701 -6.19,52.5 -5.07,113.78 2.79,166.06 8.15,54.14 25.98,115.06 48.09,165.15 22.88,51.81 57.2499,107.76 92.9499,151.73 36.89,45.44 86.35,91.88 133.88,126.0399 49.06,35.2501 110.92,68.1101 167.52,89.2501 58.37,21.8 128.8101,37.77 190.8501,43.5 63.93,5.91 138.29,2.76 201.53,-8.3 65.11,-11.38 138.13,-34.55 197.98,-62.59 61.57,-28.84 127.8299,-71.5001 179.6999,-115.45 53.32,-45.17 107.58,-105.31 147.2301,-162.85 40.72,-59.11 78.36,-133.3 102.22,-200.99 24.48,-69.49 41.87,-153.08 47.35,-226.55 5.63,-75.35 0.45,-162.7801 -13.8,-236.9901 -14.61,-76.07 -43.13,-161.1999 -77.09,-230.8199 -34.79,-71.33 -85.76,-147.89 -137.9601,-207.66 -53.44,-61.21 -124.27,-123.27 -191.8299,-168.42 -69.14,-46.1901 -155.67,-88.6101 -234.46,-115.1801 -80.59,-27.18 -177.34,-45.99 -262.23,-51.22 -86.7801,-5.35 -187.2901,1.86 -272.4601,19.31 -87.04,17.84 -184.27,51.7 -263.6599,91.59 -81.08,40.7501 -167.95,100.0101 -235.62,160.4601 L 2482.2664,2913.52 c -57.14,49.45 -130.27,97.65 -198.34,130.46 -66.36,31.9799 -147.46,58.7199 -219.87,72.26 -70.56,13.18 -153.63,17.68 -225.17,11.97 -69.66,-5.57 -148.87,-22.4801 -214.65,-46.0801 -64,-22.9499 -134.08,-58.9899 -189.84,-97.8899 -54.2,-37.82 -110.78,-89.47 -153.19,-140.17 -41.2,-49.24 -81.1,-112.06 -107.95,-170.37 -26.06,-56.6 -47.45,-125.59 -57.76,-187.04 -9.99,-59.59 -12.46,-129.58 -6.46,-189.7001 5.81,-58.24 21.3,-124.3 42.21,-178.97 20.23,-52.8999 51.5,-110.6399 84.93,-156.3599 32.32,-44.19 76.16,-90.09 118.98,-124.22 41.34,-32.95 93.85,-64.55 142.41,-85.44 46.83,-20.15 103.72,-36.19 154.2,-43.26 48.63,-6.81 105.55,-7.25 154.24,-0.96 46.82,6.05 99.72,20.12 143.27,38.36 41.82,17.5 87.22,43.99 122.89,71.96 34.19,26.82 69.42,62.85 95.25,97.79 24.72,33.43 48.03,75.64 62.94,114.45 14.24,37.06 24.94,81.8499 28.76,121.3699 3.63,37.65 2.04,81.51 -4.56,118.76 -6.27,35.41 -18.92,75.1701 -34.49,107.5901 -14.76,30.74 -36.48,63.82 -59,89.42 -21.29,24.21 -49.53,48.76 -76.6,66.27 -25.52,16.51 -57.43,31.53 -86.49,40.44 -27.29,8.36 -59.99,13.72 -88.53,14.25 -26.7,0.5 -57.5,-3.12 -83.29,-10.06 -24.03,-6.46 -50.65,-17.69 -71.9,-30.63 -19.7,-11.99 -40.47,-28.94 -55.95,-46.03 -14.28,-15.76 -28.17,-36.22 -37.3,-55.42 -8.36,-17.6 -15.11,-39.25 -17.93,-58.52 -2.57,-17.54 -2.59,-38.2 0.24,-55.7 2.56,-15.8001 8.23,-33.5901 15.57,-47.8201 6.57,-12.74 16.43,-26.29 26.77,-36.22 9.18,-8.81 21.44,-17.31 33.07,-22.47 10.25,-4.55 23.03,-7.81 34.23,-8.32 9.83,-0.46 21.35,1.12 30.56,4.57 8.11,3.04 16.85,8.51 22.86,14.74 5.4,5.6 10.21,13.6 12.35,21.08 2.01,7.01 2.26,15.82 0.53,22.91 -1.72,7.08 -1.48,15.9 0.53,22.91 2.15,7.47 6.96,15.48 12.36,21.07 6.01,6.2301 14.75,11.7101 22.86,14.7401 9.21,3.45 20.73,5.03 30.56,4.58 11.2,-0.52 23.98,-3.77 34.23,-8.32 11.63,-5.1701 23.89,-13.6601 33.07,-22.4801 10.34,-9.93 20.19,-23.48 26.77,-36.22 7.34,-14.22 13.01,-32.02 15.57,-47.82 2.83,-17.5 2.81,-38.15 0.24,-55.69 -2.82,-19.28 -9.57,-40.93 -17.93,-58.52 -9.13,-19.21 -23.02,-39.66 -37.3,-55.4199 -15.48,-17.09 -36.25,-34.05 -55.95,-46.04 -21.25,-12.93 -47.87,-24.17 -71.9,-30.63 -25.79,-6.93 -56.59,-10.56 -83.29,-10.06 -28.54,0.53 -61.24,5.89 -88.53,14.26 -29.06,8.9 -60.97,23.93 -86.49,40.43 -27.07,17.52 -55.31,42.07 -76.6,66.2799 -22.52,25.6 -44.24,58.67 -59,89.41 -15.57,32.42 -28.22,72.18 -34.5,107.59 -6.59,37.25 -8.18,81.1101 -4.55,118.7701 3.82,39.51 14.52,84.3 28.76,121.36 14.91,38.81 38.22,81.02 62.94,114.45 25.83,34.94 61.05,70.98 95.25,97.79 35.67,27.97 81.07,54.46 122.89,71.97 43.55,18.23 96.45,32.3 143.27,38.35 48.69,6.29 105.61,5.85 154.23,-0.96 50.49,-7.06 107.38,-23.11 154.21,-43.25 48.56,-20.89 101.07,-52.5 142.41,-85.45 42.81,-34.12 86.66,-80.02 118.98,-124.22 33.43,-45.72 64.69,-103.46 84.93,-156.36 20.91,-54.67 36.4,-120.7201 42.21,-178.9601 6,-60.12 3.53,-130.12 -6.46,-189.6999 -10.31,-61.46 -31.7,-130.44 -57.76,-187.04 -26.85,-58.32 -66.75,-121.14 -107.95,-170.38 -42.41,-50.69 -98.99,-102.34 -153.2,-140.16 -55.75,-38.9001 -125.83,-74.9501 -189.83,-97.9001 -65.78,-23.59 -144.99,-40.51 -214.65,-46.07 -71.54,-5.72 -154.61,-1.22 -225.17,11.97 -72.42,13.53 -153.51,40.27 -219.87,72.26 -68.07,32.8 -141.2,81.0001 -198.34,130.4501 -58.58,50.69 -118.04,117.95 -161.34995,182.17 -44.37,65.79 -85.198,148.21 -110.86499,223.3 -26.279,76.8899 -44.618,169.2599 -49.933,250.3399 -5.438,82.9701 1.093,179.1201 17.478,260.6401 16.759,83.38 48.84299,176.58 86.75999,252.71 38.76,77.83 95.24995,161.27 152.95995,226.31 58.96,66.45 136.9,133.73 211.14,182.53 75.83,49.85 170.59,95.45 256.78,123.83 l 1736.46,587.68 c 71.39,24.76 149.69,63.99 212.14,106.54 60.89,41.48 124.59,98.34 172.52,154.28 46.69,54.51 92.13,124.2 122.95,189.02 30.0101,63.11 54.9701,140.17 67.4201,208.93 12.12,66.9 15.95,145.61 10.14,213.35 -5.65,65.85 -22.09,140.6801 -44.79,202.75 -22.05,60.3 -56.5001,126.27 -93.5701,178.68 -35.99,50.87 -85.04,103.89 -133.11,143.54 -46.6,38.44 -105.99,75.58 -161.05,100.45 -53.34,24.08 -118.3,43.69 -176.09,52.92 -55.93,8.93 -121.57,10.72 -177.8799,4.63 -54.44,-5.89 -116.1101,-20.91 -167.0701,-40.93 -49.2,-19.32 -102.83,-49 -145.2,-80.61 -40.86,-30.48 -83.2,-71.72 -114.57,-111.91 -30.2,-38.71 -59.04,-87.78 -77.94,-133.1 -18.17,-43.57 -32.44,-96.42 -38.42,-143.2499 -5.75,-44.97 -5.51,-97.5301 0.88,-142.4101 6.12,-43.02 19.72,-91.54 37.06,-131.38 16.6,-38.12 41.49,-79.42 67.65,-111.73 24.97,-30.87 58.41,-62.53 90.73,-85.59 30.79,-21.98 69.56,-42.53 105.12,-55.44 33.81,-12.28 74.56,-21.2 110.42,-23.93 34.01,-2.58 73.51,-0.31 106.9401,6.39 31.62,6.34 66.9999,18.52 95.6999,33.21 27.05,13.84 56.02,33.97 78.26,54.68 20.89,19.45 41.88,45.09 56.61,69.54 13.78,22.87 26.05,51.36 32.94,77.16 6.41,24.04 10,52.72 9.42,77.59 -0.54,23.05 -4.84,49.51 -11.9,71.47 -6.5,20.24 -17.27,42.5 -29.34,60.01 -11.06,16.0401 -26.43,32.7001 -41.71,44.7901 -13.91,10.99 -31.79,21.34 -48.36,27.63 -14.96,5.69 -33.21,9.68 -49.2,10.43 -14.32,0.68 -30.9799,-1.08 -44.7499,-5.07 -12.22,-3.54 -25.71,-9.92 -36,-17.41 -9.07,-6.6 -18.27,-16.04 -24.32,-25.48 -5.31,-8.28 -9.7,-19.05 -11.32,-28.7501 -1.42,-8.54 -1.05,-18.85 1.34,-27.17 2.15,-7.47 6.67,-15.64 12.07,-21.23 5.07,-5.25 12.58,-9.87 19.58,-11.92 7,-2.05 14.51,-6.67 19.57,-11.91 5.41,-5.6 9.93,-13.77 12.08,-21.24 2.39,-8.32 2.76,-18.63 1.34,-27.17 -1.62,-9.7 -6.02,-20.47 -11.32,-28.75 -6.05,-9.44 -15.26,-18.88 -24.32,-25.48 -10.29,-7.49 -23.78,-13.86 -36,-17.4 -13.7701,-3.99 -30.4301,-5.76 -44.7501,-5.08 -15.99,0.76 -34.24,4.74 -49.2,10.43 -16.58,6.3 -34.45,16.64 -48.36,27.64 -15.28,12.08 -30.65,28.75 -41.71,44.79 -12.07,17.5 -22.84,39.76 -29.35,60.01 -7.06,21.95 -11.36,48.41 -11.89,71.4601 -0.58,24.88 3,53.55 9.42,77.59 6.89,25.7999 19.16,54.2899 32.94,77.1599 14.73,24.45 35.72,50.09 56.61,69.55 22.24,20.71 51.21,40.83 78.26,54.68 28.7,14.68 64.0801,26.86 95.6901,33.2 33.44,6.7 72.9399,8.97 106.9399,6.39 35.86,-2.73 76.62,-11.65 110.42,-23.93 35.56,-12.91 74.34,-33.46 105.13,-55.43 32.32,-23.07 65.75,-54.73 90.73,-85.59 26.15,-32.32 51.05,-73.6099 67.65,-111.7299 17.34,-39.85 30.94,-88.3701 37.06,-131.3901 6.39,-44.87 6.63,-97.44 0.88,-142.4 -5.98,-46.84 -20.25,-99.69 -38.42,-143.26 -18.9,-45.31 -47.74,-94.39 -77.95,-133.09 -31.36,-40.19 -73.7,-81.43 -114.56,-111.92 -42.37,-31.61 -96,-61.28 -145.2,-80.61 -50.96,-20.01 -112.6399,-35.03 -167.0699,-40.92 -56.3101,-6.1 -121.9501,-4.31 -177.8801,4.62 -57.8,9.23 -122.75,28.84 -176.09,52.93 -55.07,24.86 -114.45,62 -161.06,100.45 -48.06,39.65 -97.11,92.67 -133.1,143.53 -37.08,52.42 -71.53,118.38 -93.57,178.68 -22.7,62.07 -39.14,136.9 -44.79,202.75 -5.81,67.7401 -1.99,146.4501 10.13,213.35 12.46,68.76 37.42,145.82 67.43,208.93 30.82,64.82 76.26,134.51 122.95,189.02 47.93,55.95 111.63,112.8 172.52,154.29 62.44,42.54 140.75,81.77 212.14,106.54 73.19,25.38 161.17,43.24 238.4401,48.64 79.1699,5.53 170.9499,-0.32 248.8199,-15.64 79.73,-15.68 168.89,-45.99 241.76,-81.92 74.58,-36.78 154.58,-90.51 216.99,-145.46 63.8301,-56.2 128.5001,-130.59 175.4701,-201.49 48.02,-72.48 92.03,-163.13 119.51,-245.62 28.07,-84.2899 47.3599,-185.43 52.4999,-274.12 5.26,-90.59 -2.63,-195.46 -21.1499,-284.29 L 3775.3464,2720.83 c -14.25,-74.21 -19.43,-161.64 -13.81,-236.99 5.49,-73.47 22.88,-157.0701 47.36,-226.5501 23.8601,-67.69 61.5001,-141.88 102.2201,-200.9899 39.65,-57.54 93.91,-117.68 147.23,-162.85 51.87,-43.95 118.1299,-86.62 179.6999,-115.45 59.85,-28.04 132.87,-51.21 197.98,-62.59 63.24,-11.06 137.59,-14.21 201.5201,-8.3 62.05,5.73 132.49,21.69 190.86,43.5 56.6,21.14 118.45,53.99 167.52,89.25 47.53,34.15 96.99,80.6 133.88,126.04 35.6999,43.97 70.0699,99.92 92.9499,151.7299 22.11,50.09 39.94,111.01 48.09,165.15 7.86,52.2801 8.98,113.5501 2.79,166.0601 -5.97,50.62 -20.52,107.91 -39.64,155.17 -18.42,45.51 -46.5,95.02 -76.29,134.04 -28.6499,37.53 -67.2899,76.31 -104.8499,104.91 -36.07,27.46 -81.71,53.53 -123.77,70.44 -40.32,16.2 -89.14,28.69 -132.31,33.59 -41.31,4.69 -89.52,3.78 -130.59,-2.72 -39.21,-6.19 -83.3501,-19.32 -119.4801,-35.77 -34.43,-15.68 -71.62,-38.99 -100.58,-63.33 -27.53,-23.13 -55.64,-53.97 -75.93,-83.66 -19.24,-28.16 -37.02,-63.5 -47.94,-95.81 -10.31,-30.55 -17.46,-67.27 -19.09,-99.48 -1.53,-30.35 1.41,-65.5 8.23,-95.11 6.4,-27.82 18.11,-58.82 31.91,-83.8 12.93,-23.37 31.46,-48.24 50.36,-67.1001 17.61,-17.58 40.65,-35.02 62.48,-46.96 20.24,-11.06 45.3,-20.57 67.84,-25.43 20.79,-4.49 45.45,-6.29 66.65,-4.59 19.4201,1.55 41.5401,6.53 59.6401,13.73 16.48,6.55 34.37,16.85 48.11,28.06 12.41,10.11 24.99,23.92 33.64,37.39 7.74,12.0601 14.55,27.3701 17.98,41.2901 3.04,12.36 4.27,27.22 2.92,39.88 -1.18,11.15 -4.75,23.85 -9.91,33.81 -4.51,8.73 -11.64,17.92 -19.23,24.17 -6.69,5.51 -15.8,10.34 -24.2,12.43 -7.55,1.87 -16.88,2.04 -24.43,0.16 -7.08,-1.77 -14.83,-5.96 -20.11,-11 z m -1216.3701,-23.88 269.18,1346.96 -1301.09,-440.36 z"
           id="path115"
           style="fill:#000000;stroke:none;stroke-width:1" />
      </g>
    </clipPath>
    <linearGradient
       inkscape:collect="always"
       xlink:href="#linearGradient34-6"
       id="linearGradient954"
       x1="109.55528"
       y1="183.79472"
       x2="100.43088"
       y2="191.01703"
       gradientUnits="userSpaceOnUse"
       gradientTransform="matrix(0.99759084,0,0,0.9706289,-67.284375,-393.19426)" />
    <linearGradient
       inkscape:collect="always"
       xlink:href="#linearGradient34-6"
       id="linearGradient977"
       x1="22.760374"
       y1="173.50294"
       x2="185.05908"
       y2="173.50294"
       gradientUnits="userSpaceOnUse" />
    <linearGradient
       xlink:href="#linearGradient6062"
       id="linearGradient6064"
       x1="52.160706"
       y1="235.0119"
       x2="140.00238"
       y2="148.83606"
       gradientUnits="userSpaceOnUse"
       gradientTransform="translate(-204.73314,3.146116)" />
    <linearGradient
       id="linearGradient6062">
      <stop
         style="stop-color:#800080;stop-opacity:1"
         offset="0"
         id="stop6058" />
      <stop
         style="stop-color:#fd047b;stop-opacity:1"
         offset="1"
         id="stop6060" />
    </linearGradient>
    <linearGradient
       xlink:href="#linearGradient6062"
       id="linearGradient6064-6"
       x1="52.160706"
       y1="235.0119"
       x2="140.00238"
       y2="148.83606"
       gradientUnits="userSpaceOnUse"
       gradientTransform="matrix(0.81432454,0,0,0.81432454,-191.98756,28.97854)" />
    <linearGradient
       xlink:href="#linearGradient34"
       id="linearGradient6064-66"
       x1="57.502525"
       y1="235.59583"
       x2="182.93651"
       y2="68.206467"
       gradientUnits="userSpaceOnUse"
       gradientTransform="matrix(-0.08567879,1.2051396,-1.2051396,-0.08567879,308.26868,76.634087)" />
    <linearGradient
       xlink:href="#linearGradient6062"
       id="linearGradient6064-9"
       x1="52.160706"
       y1="235.0119"
       x2="140.00238"
       y2="148.83606"
       gradientUnits="userSpaceOnUse"
       gradientTransform="translate(-223.82822,113.3411)" />
    <linearGradient
       xlink:href="#linearGradient6062"
       id="linearGradient6064-8"
       x1="52.160706"
       y1="235.0119"
       x2="140.00238"
       y2="148.83606"
       gradientUnits="userSpaceOnUse"
       gradientTransform="matrix(1.1063991,0,0,1.1063991,-13.319488,13.248297)" />
    <linearGradient
       xlink:href="#linearGradient6062"
       id="linearGradient6064-3"
       x1="52.160706"
       y1="235.0119"
       x2="140.00238"
       y2="148.83606"
       gradientUnits="userSpaceOnUse"
       gradientTransform="translate(-248.3405,72.006668)" />
    <linearGradient
       xlink:href="#linearGradient6062"
       id="linearGradient6064-4"
       x1="52.160706"
       y1="235.0119"
       x2="140.00238"
       y2="148.83606"
       gradientUnits="userSpaceOnUse"
       gradientTransform="matrix(3.7795275,0,0,3.7795275,-1122.651,-313.96529)" />
    <linearGradient
       xlink:href="#linearGradient6062"
       id="linearGradient6064-38"
       x1="52.160706"
       y1="235.0119"
       x2="140.00238"
       y2="148.83606"
       gradientUnits="userSpaceOnUse"
       gradientTransform="translate(-271.47946,41.670413)" />
  </defs>
  <metadata
     id="metadata23">
    <rdf:RDF>
      <cc:Work
         rdf:about="">
        <dc:format>image/svg+xml</dc:format>
        <dc:type
           rdf:resource="http://purl.org/dc/dcmitype/StillImage" />
        <dc:title />
      </cc:Work>
    </rdf:RDF>
  </metadata>
  <g
     transform="translate(53.571829,-29.616794)"
     id="layer1">
    <g
       style="fill:#000000"
       id="g1991"
       transform="rotate(-0.84718521,110.05508,189.60825)">
      <g
         id="g2688">
        <ellipse
           style="mix-blend-mode:normal;fill:#000000;fill-opacity:1;fill-rule:evenodd;stroke:#ffffff;stroke-width:0.27403px;stroke-linecap:butt;stroke-linejoin:miter;stroke-opacity:1"
           id="path123"
           cx="2.5351706"
           cy="219.03833"
           rx="6.8249974"
           ry="6.8249979"
           transform="rotate(-28.581924)" />
        <path
           id="path27"
           style="fill:#000000;fill-opacity:1;fill-rule:nonzero;stroke-width:0.388604"
           d="M 232.24145,197.31643 A 125.46352,125.46352 0 0 0 114.54389,64.899434 125.46352,125.46352 0 0 0 -18.251958,182.57485 125.46352,125.46352 0 0 0 99.423454,315.37073 125.46352,125.46352 0 0 0 232.21858,197.69526 a 125.46352,125.46352 0 0 0 0.0229,-0.37883 z m -13.43191,-0.0771 A 117.34539,117.34539 0 0 1 94.606298,307.30055 117.34539,117.34539 0 0 1 -15.454894,183.0973 117.34539,117.34539 0 0 1 108.74833,73.036099 117.34539,117.34539 0 0 1 218.80954,197.23935 Z" />
        <g
           transform="matrix(-0.03530297,-0.00801987,0.00801987,-0.03530297,193.47952,337.1264)"
           style="fill:#000000;stroke:none"
           id="g59">
          <path
             style="fill:#ffffff"
             d="m 756.223,2572.81 c 0,76.61 7.394,155.44 22.082,228.52 85.061,423.2 392.555,751.97 799.895,889.84 l 1648.77,558 c -53.06,-11.73 -108.09,-18.47 -170.1,-18.47 -459.72,0 -858.43,386.42 -858.43,890.64 0,593.78 505.24,996.71 1026.14,996.71 72.08,0 145.98,-6.76 214.79,-20.29 546.62,-107.52 920,-601.23 920,-1141.96 0,-85.55 -9.24,-173.47 -25.56,-255.14 L 3992.68,2993.8 c 112.81,357.17 451.97,577.31 809.44,577.31 521.86,0 950.66,-437.89 950.66,-980.9 0,-67.52 -6.14,-136.48 -18.52,-200.96 -104.14,-542.25 -593.25,-887.82 -1098.31,-887.82 -359.52,0 -626.91,150.98 -805.68,308.05 L 2522.68,2958.32 c 148.7,-162.48 212.03,-365.84 212.03,-552.38 0,-483.79 -405.3,-904.57 -935.72,-904.57 -268.28,0 -499.31,102.7 -670.7,251.01 -247.481,214.17 -372.067,522.94 -372.067,820.43 z m 1986.147,928.56 670.18,-588.79 174.81,874.78 z"
             id="path55" />
          <path
             d="m 4718.04,2673.13 c -5.27,-5.03 -13.02,-9.23 -20.1,-10.99 -7.55,-1.88 -16.88,-1.72 -24.43,0.16 -8.4,2.09 -17.51,6.92 -24.2,12.42 -7.59,6.26 -14.72,15.45 -19.24,24.18 -5.15,9.96 -8.72,22.66 -9.9,33.81 -1.35,12.65 -0.12,27.52 2.92,39.87 3.43,13.92 10.24,29.23 17.98,41.3 8.65,13.47 21.23,27.27 33.63,37.39 13.74,11.2 31.64,21.51 48.12,28.06 18.1,7.19 40.22,12.17 59.64,13.73 21.2,1.7 45.86,-0.11 66.64,-4.59 22.55,-4.87 47.61,-14.37 67.85,-25.43 21.82,-11.94 44.87,-29.38 62.48,-46.96 18.89,-18.87 37.43,-43.73 50.35,-67.1 13.81,-24.98 25.52,-55.98 31.92,-83.8 6.82,-29.62 9.76,-64.77 8.23,-95.12 -1.63,-32.2 -8.78,-68.93 -19.09,-99.47 -10.92,-32.31 -28.7,-67.65 -47.94,-95.81 -20.29,-29.69 -48.4,-60.53 -75.93,-83.66 -28.96,-24.34 -66.15,-47.65 -100.58,-63.33 -36.13,-16.45 -80.27,-29.58 -119.48,-35.78 -41.07,-6.49 -89.28,-7.4 -130.59,-2.71 -43.17,4.9 -91.99,17.38 -132.31,33.59 -42.06,16.9 -87.7,42.98 -123.77,70.44 -37.56,28.6 -76.2,67.38 -104.85,104.9 -29.79,39.03 -57.87,88.54 -76.29,134.05 -19.12,47.26 -33.67,104.54 -39.64,155.17 -6.19,52.5 -5.07,113.78 2.79,166.06 8.15,54.14 25.98,115.06 48.09,165.15 22.88,51.81 57.25,107.76 92.95,151.73 36.89,45.44 86.35,91.88 133.88,126.04 49.06,35.25 110.92,68.11 167.52,89.25 58.37,21.8 128.81,37.77 190.85,43.5 63.93,5.91 138.29,2.76 201.53,-8.3 65.11,-11.38 138.13,-34.55 197.98,-62.59 61.57,-28.84 127.83,-71.5 179.7,-115.45 53.32,-45.17 107.58,-105.31 147.23,-162.85 40.72,-59.11 78.36,-133.3 102.22,-200.99 24.48,-69.49 41.87,-153.08 47.35,-226.55 5.63,-75.35 0.45,-162.78 -13.8,-236.99 -14.61,-76.07 -43.13,-161.2 -77.09,-230.82 -34.79,-71.33 -85.76,-147.89 -137.96,-207.66 -53.44,-61.21 -124.27,-123.27 -191.83,-168.42 -69.14,-46.19 -155.67,-88.61 -234.46,-115.18 -80.59,-27.18 -177.34,-45.99 -262.23,-51.22 -86.78,-5.35 -187.29,1.86 -272.46,19.31 -87.04,17.84 -184.27,51.7 -263.66,91.59 -81.08,40.75 -167.95,100.01 -235.62,160.46 L 2545.26,3123.5 c -57.14,49.45 -130.27,97.65 -198.34,130.46 -66.36,31.98 -147.46,58.72 -219.87,72.26 -70.56,13.18 -153.63,17.68 -225.17,11.97 -69.66,-5.57 -148.87,-22.48 -214.65,-46.08 -64,-22.95 -134.08,-58.99 -189.84,-97.89 -54.2,-37.82 -110.78,-89.47 -153.19,-140.17 -41.2,-49.24 -81.1,-112.06 -107.95,-170.37 -26.06,-56.6 -47.45,-125.59 -57.76,-187.04 -9.99,-59.59 -12.46,-129.58 -6.46,-189.7 5.81,-58.24 21.3,-124.3 42.21,-178.97 20.23,-52.9 51.5,-110.64 84.93,-156.36 32.32,-44.19 76.16,-90.09 118.98,-124.22 41.34,-32.95 93.85,-64.55 142.41,-85.44 46.83,-20.15 103.72,-36.19 154.2,-43.26 48.63,-6.81 105.55,-7.25 154.24,-0.96 46.82,6.05 99.72,20.12 143.27,38.36 41.82,17.5 87.22,43.99 122.89,71.96 34.19,26.82 69.42,62.85 95.25,97.79 24.72,33.43 48.03,75.64 62.94,114.45 14.24,37.06 24.94,81.85 28.76,121.37 3.63,37.65 2.04,81.51 -4.56,118.76 -6.27,35.41 -18.92,75.17 -34.49,107.59 -14.76,30.74 -36.48,63.82 -59,89.42 -21.29,24.21 -49.53,48.76 -76.6,66.27 -25.52,16.51 -57.43,31.53 -86.49,40.44 -27.29,8.36 -59.99,13.72 -88.53,14.25 -26.7,0.5 -57.5,-3.12 -83.29,-10.06 -24.03,-6.46 -50.65,-17.69 -71.9,-30.63 -19.7,-11.99 -40.47,-28.94 -55.95,-46.03 -14.28,-15.76 -28.17,-36.22 -37.3,-55.42 -8.36,-17.6 -15.11,-39.25 -17.93,-58.52 -2.57,-17.54 -2.59,-38.2 0.24,-55.7 2.56,-15.8 8.23,-33.59 15.57,-47.82 6.57,-12.74 16.43,-26.29 26.77,-36.22 9.18,-8.81 21.44,-17.31 33.07,-22.47 10.25,-4.55 23.03,-7.81 34.23,-8.32 9.83,-0.46 21.35,1.12 30.56,4.57 8.11,3.04 16.85,8.51 22.86,14.74 5.4,5.6 10.21,13.6 12.35,21.08 2.01,7.01 2.26,15.82 0.53,22.91 -1.72,7.08 -1.48,15.9 0.53,22.91 2.15,7.47 6.96,15.48 12.36,21.07 6.01,6.23 14.75,11.71 22.86,14.74 9.21,3.45 20.73,5.03 30.56,4.58 11.2,-0.52 23.98,-3.77 34.23,-8.32 11.63,-5.17 23.89,-13.66 33.07,-22.48 10.34,-9.93 20.19,-23.48 26.77,-36.22 7.34,-14.22 13.01,-32.02 15.57,-47.82 2.83,-17.5 2.81,-38.15 0.24,-55.69 -2.82,-19.28 -9.57,-40.93 -17.93,-58.52 -9.13,-19.21 -23.02,-39.66 -37.3,-55.42 -15.48,-17.09 -36.25,-34.05 -55.95,-46.04 -21.25,-12.93 -47.87,-24.17 -71.9,-30.63 -25.79,-6.93 -56.59,-10.56 -83.29,-10.06 -28.54,0.53 -61.24,5.89 -88.53,14.26 -29.06,8.9 -60.97,23.93 -86.49,40.43 -27.07,17.52 -55.31,42.07 -76.6,66.28 -22.52,25.6 -44.24,58.67 -59,89.41 -15.57,32.42 -28.22,72.18 -34.5,107.59 -6.59,37.25 -8.18,81.11 -4.55,118.77 3.82,39.51 14.52,84.3 28.76,121.36 14.91,38.81 38.22,81.02 62.94,114.45 25.83,34.94 61.05,70.98 95.25,97.79 35.67,27.97 81.07,54.46 122.89,71.97 43.55,18.23 96.45,32.3 143.27,38.35 48.69,6.29 105.61,5.85 154.23,-0.96 50.49,-7.06 107.38,-23.11 154.21,-43.25 48.56,-20.89 101.07,-52.5 142.41,-85.45 42.81,-34.12 86.66,-80.02 118.98,-124.22 33.43,-45.72 64.69,-103.46 84.93,-156.36 20.91,-54.67 36.4,-120.72 42.21,-178.96 6,-60.12 3.53,-130.12 -6.46,-189.7 -10.31,-61.46 -31.7,-130.44 -57.76,-187.04 -26.85,-58.32 -66.75,-121.14 -107.95,-170.38 -42.41,-50.69 -98.99,-102.34 -153.2,-140.16 -55.75,-38.9 -125.83,-74.95 -189.83,-97.9 -65.78,-23.59 -144.99,-40.51 -214.65,-46.07 -71.54,-5.72 -154.61,-1.22 -225.17,11.97 -72.42,13.53 -153.51,40.27 -219.87,72.26 -68.07,32.8 -141.2,81 -198.34,130.45 -58.58,50.69 -118.04,117.95 -161.35,182.17 -44.37,65.79 -85.198,148.21 -110.865,223.3 -26.279,76.89 -44.618,169.26 -49.933,250.34 -5.438,82.97 1.093,179.12 17.478,260.64 16.759,83.38 48.843,176.58 86.76,252.71 38.76,77.83 95.25,161.27 152.96,226.31 58.96,66.45 136.9,133.73 211.14,182.53 75.83,49.85 170.59,95.45 256.78,123.83 L 3358.68,4147 c 71.39,24.76 149.69,63.99 212.14,106.54 60.89,41.48 124.59,98.34 172.52,154.28 46.69,54.51 92.13,124.2 122.95,189.02 30.01,63.11 54.97,140.17 67.42,208.93 12.12,66.9 15.95,145.61 10.14,213.35 -5.65,65.85 -22.09,140.68 -44.79,202.75 -22.05,60.3 -56.5,126.27 -93.57,178.68 -35.99,50.87 -85.04,103.89 -133.11,143.54 -46.6,38.44 -105.99,75.58 -161.05,100.45 -53.34,24.08 -118.3,43.69 -176.09,52.92 -55.93,8.93 -121.57,10.72 -177.88,4.63 -54.44,-5.89 -116.11,-20.91 -167.07,-40.93 -49.2,-19.32 -102.83,-49 -145.2,-80.61 -40.86,-30.48 -83.2,-71.72 -114.57,-111.91 -30.2,-38.71 -59.04,-87.78 -77.94,-133.1 -18.17,-43.57 -32.44,-96.42 -38.42,-143.25 -5.75,-44.97 -5.51,-97.53 0.88,-142.41 6.12,-43.02 19.72,-91.54 37.06,-131.38 16.6,-38.12 41.49,-79.42 67.65,-111.73 24.97,-30.87 58.41,-62.53 90.73,-85.59 30.79,-21.98 69.56,-42.53 105.12,-55.44 33.81,-12.28 74.56,-21.2 110.42,-23.93 34.01,-2.58 73.51,-0.31 106.94,6.39 31.62,6.34 67,18.52 95.7,33.21 27.05,13.84 56.02,33.97 78.26,54.68 20.89,19.45 41.88,45.09 56.61,69.54 13.78,22.87 26.05,51.36 32.94,77.16 6.41,24.04 10,52.72 9.42,77.59 -0.54,23.05 -4.84,49.51 -11.9,71.47 -6.5,20.24 -17.27,42.5 -29.34,60.01 -11.06,16.04 -26.43,32.7 -41.71,44.79 -13.91,10.99 -31.79,21.34 -48.36,27.63 -14.96,5.69 -33.21,9.68 -49.2,10.43 -14.32,0.68 -30.98,-1.08 -44.75,-5.07 -12.22,-3.54 -25.71,-9.92 -36,-17.41 -9.07,-6.6 -18.27,-16.04 -24.32,-25.48 -5.31,-8.28 -9.7,-19.05 -11.32,-28.75 -1.42,-8.54 -1.05,-18.85 1.34,-27.17 2.15,-7.47 6.67,-15.64 12.07,-21.23 5.07,-5.25 12.58,-9.87 19.58,-11.92 7,-2.05 14.51,-6.67 19.57,-11.91 5.41,-5.6 9.93,-13.77 12.08,-21.24 2.39,-8.32 2.76,-18.63 1.34,-27.17 -1.62,-9.7 -6.02,-20.47 -11.32,-28.75 -6.05,-9.44 -15.26,-18.88 -24.32,-25.48 -10.29,-7.49 -23.78,-13.86 -36,-17.4 -13.77,-3.99 -30.43,-5.76 -44.75,-5.08 -15.99,0.76 -34.24,4.74 -49.2,10.43 -16.58,6.3 -34.45,16.64 -48.36,27.64 -15.28,12.08 -30.65,28.75 -41.71,44.79 -12.07,17.5 -22.84,39.76 -29.35,60.01 -7.06,21.95 -11.36,48.41 -11.89,71.46 -0.58,24.88 3,53.55 9.42,77.59 6.89,25.8 19.16,54.29 32.94,77.16 14.73,24.45 35.72,50.09 56.61,69.55 22.24,20.71 51.21,40.83 78.26,54.68 28.7,14.68 64.08,26.86 95.69,33.2 33.44,6.7 72.94,8.97 106.94,6.39 35.86,-2.73 76.62,-11.65 110.42,-23.93 35.56,-12.91 74.34,-33.46 105.13,-55.43 32.32,-23.07 65.75,-54.73 90.73,-85.59 26.15,-32.32 51.05,-73.61 67.65,-111.73 17.34,-39.85 30.94,-88.37 37.06,-131.39 6.39,-44.87 6.63,-97.44 0.88,-142.4 -5.98,-46.84 -20.25,-99.69 -38.42,-143.26 -18.9,-45.31 -47.74,-94.39 -77.95,-133.09 -31.36,-40.19 -73.7,-81.43 -114.56,-111.92 -42.37,-31.61 -96,-61.28 -145.2,-80.61 -50.96,-20.01 -112.64,-35.03 -167.07,-40.92 -56.31,-6.1 -121.95,-4.31 -177.88,4.62 -57.8,9.23 -122.75,28.84 -176.09,52.93 -55.07,24.86 -114.45,62 -161.06,100.45 -48.06,39.65 -97.11,92.67 -133.1,143.53 -37.08,52.42 -71.53,118.38 -93.57,178.68 -22.7,62.07 -39.14,136.9 -44.79,202.75 -5.81,67.74 -1.99,146.45 10.13,213.35 12.46,68.76 37.42,145.82 67.43,208.93 30.82,64.82 76.26,134.51 122.95,189.02 47.93,55.95 111.63,112.8 172.52,154.29 62.44,42.54 140.75,81.77 212.14,106.54 73.19,25.38 161.17,43.24 238.44,48.64 79.17,5.53 170.95,-0.32 248.82,-15.64 79.73,-15.68 168.89,-45.99 241.76,-81.92 74.58,-36.78 154.58,-90.51 216.99,-145.46 63.83,-56.2 128.5,-130.59 175.47,-201.49 48.02,-72.48 92.03,-163.13 119.51,-245.62 28.07,-84.29 47.36,-185.43 52.5,-274.12 5.26,-90.59 -2.63,-195.46 -21.15,-284.29 L 3838.34,2930.81 c -14.25,-74.21 -19.43,-161.64 -13.81,-236.99 5.49,-73.47 22.88,-157.07 47.36,-226.55 23.86,-67.69 61.5,-141.88 102.22,-200.99 39.65,-57.54 93.91,-117.68 147.23,-162.85 51.87,-43.95 118.13,-86.62 179.7,-115.45 59.85,-28.04 132.87,-51.21 197.98,-62.59 63.24,-11.06 137.59,-14.21 201.52,-8.3 62.05,5.73 132.49,21.69 190.86,43.5 56.6,21.14 118.45,53.99 167.52,89.25 47.53,34.15 96.99,80.6 133.88,126.04 35.7,43.97 70.07,99.92 92.95,151.73 22.11,50.09 39.94,111.01 48.09,165.15 7.86,52.28 8.98,113.55 2.79,166.06 -5.97,50.62 -20.52,107.91 -39.64,155.17 -18.42,45.51 -46.5,95.02 -76.29,134.04 -28.65,37.53 -67.29,76.31 -104.85,104.91 -36.07,27.46 -81.71,53.53 -123.77,70.44 -40.32,16.2 -89.14,28.69 -132.31,33.59 -41.31,4.69 -89.52,3.78 -130.59,-2.72 -39.21,-6.19 -83.35,-19.32 -119.48,-35.77 -34.43,-15.68 -71.62,-38.99 -100.58,-63.33 -27.53,-23.13 -55.64,-53.97 -75.93,-83.66 -19.24,-28.16 -37.02,-63.5 -47.94,-95.81 -10.31,-30.55 -17.46,-67.27 -19.09,-99.48 -1.53,-30.35 1.41,-65.5 8.23,-95.11 6.4,-27.82 18.11,-58.82 31.91,-83.8 12.93,-23.37 31.46,-48.24 50.36,-67.1 17.61,-17.58 40.65,-35.02 62.48,-46.96 20.24,-11.06 45.3,-20.57 67.84,-25.43 20.79,-4.49 45.45,-6.29 66.65,-4.59 19.42,1.55 41.54,6.53 59.64,13.73 16.48,6.55 34.37,16.85 48.11,28.06 12.41,10.11 24.99,23.92 33.64,37.39 7.74,12.06 14.55,27.37 17.98,41.29 3.04,12.36 4.27,27.22 2.92,39.88 -1.18,11.15 -4.75,23.85 -9.91,33.81 -4.51,8.73 -11.64,17.92 -19.23,24.17 -6.69,5.51 -15.8,10.34 -24.2,12.43 -7.55,1.87 -16.88,2.04 -24.43,0.16 -7.08,-1.77 -14.83,-5.96 -20.11,-11 z m -1216.37,-23.88 269.18,1346.96 -1301.09,-440.36 z"
             id="path57" />
        </g>
        <path
           d="M -7.8888249,192.8117 A 109.5166,109.5166 0 0 1 98.221633,80.313758 109.5166,109.5166 0 0 1 211.05086,186.41465 109.5166,109.5166 0 0 1 104.94994,299.24376 109.5166,109.5166 0 0 1 -7.8786392,193.14282 109.5166,109.5166 0 0 1 -7.8887412,192.8117 Z m 11.7215346,0.27932 A 102.43031,102.43031 0 0 0 109.36127,292.32671 102.43031,102.43031 0 0 0 208.5969,186.79826 102.43031,102.43031 0 0 0 103.06846,87.562647 102.43031,102.43031 0 0 0 3.832709,193.09107 Z"
           style="fill:#000000;fill-opacity:1;fill-rule:nonzero;stroke-width:0.33921"
           id="path27-2" />
      </g>
    </g>
  </g>
</svg>
