<?xml version="1.0" encoding="UTF-8" standalone="no"?>
<svg
   xmlns:dc="http://purl.org/dc/elements/1.1/"
   xmlns:cc="http://creativecommons.org/ns#"
   xmlns:rdf="http://www.w3.org/1999/02/22-rdf-syntax-ns#"
   xmlns:svg="http://www.w3.org/2000/svg"
   xmlns="http://www.w3.org/2000/svg"
   xmlns:xlink="http://www.w3.org/1999/xlink"
   xmlns:sodipodi="http://sodipodi.sourceforge.net/DTD/sodipodi-0.dtd"
   xmlns:inkscape="http://www.inkscape.org/namespaces/inkscape"
   width="1068.385mm"
   height="194.27975mm"
   viewBox="0 0 1068.385 194.27975"
   version="1.1"
   id="svg5722"
   sodipodi:docname="Logo_descriptive_grey_font_stretched.svg"
   inkscape:version="1.0 (4035a4fb49, 2020-05-01)">
  <sodipodi:namedview
     inkscape:document-rotation="0"
     pagecolor="#ffffff"
     bordercolor="#666666"
     borderopacity="1"
     objecttolerance="10"
     gridtolerance="10"
     guidetolerance="10"
     inkscape:pageopacity="0"
     inkscape:pageshadow="2"
     inkscape:window-width="1366"
     inkscape:window-height="705"
     id="namedview37"
     showgrid="false"
     fit-margin-top="0"
     fit-margin-left="0"
     fit-margin-right="0"
     fit-margin-bottom="0"
     inkscape:zoom="0.26599602"
     inkscape:cx="1955.4551"
     inkscape:cy="362.44496"
     inkscape:window-x="-8"
     inkscape:window-y="-8"
     inkscape:window-maximized="1"
     inkscape:current-layer="layer1">
    <inkscape:grid
       type="xygrid"
       id="grid54"
       originx="13.073465"
       originy="-0.37409188" />
  </sodipodi:namedview>
  <defs
     id="defs5716">
    <linearGradient
       id="linearGradient6995">
      <stop
         style="stop-color:#fd047b;stop-opacity:1"
         offset="0"
         id="stop6989" />
      <stop
         id="stop6991"
         offset="0.55447292"
         style="stop-color:#fd4e64;stop-opacity:1;" />
      <stop
         style="stop-color:#fe984e;stop-opacity:1"
         offset="1"
         id="stop6993" />
    </linearGradient>
    <linearGradient
       id="linearGradient34">
      <stop
         id="stop30"
         offset="0"
         style="stop-color:#fd047b;stop-opacity:1" />
      <stop
         style="stop-color:#fd4e64;stop-opacity:1;"
         offset="0.50583661"
         id="stop1529" />
      <stop
         id="stop32"
         offset="1"
         style="stop-color:#fe984e;stop-opacity:1" />
    </linearGradient>
    <linearGradient
       gradientUnits="userSpaceOnUse"
       y2="272.80951"
       x2="200.32738"
       y1="78.529755"
       x1="6.0476193"
       id="linearGradient36"
       xlink:href="#linearGradient34" />
    <radialGradient
       xlink:href="#linearGradient6995"
       id="radialGradient6444"
       cx="341.24771"
       cy="54.662258"
       fx="341.24771"
       fy="54.662258"
       r="427.12299"
       gradientTransform="matrix(1.8210681,0.10037414,-0.00921546,0.16719434,-219.52089,122.82857)"
       gradientUnits="userSpaceOnUse" />
    <linearGradient
       y2="99.545067"
       x2="208.80719"
       y1="188.33929"
       x1="42.358635"
       gradientTransform="matrix(3.3238064,1.9159908,-1.9159908,3.3238064,247.98035,-272.55718)"
       gradientUnits="userSpaceOnUse"
       id="linearGradient2197"
       xlink:href="#linearGradient2175" />
    <linearGradient
       id="linearGradient2175">
      <stop
         style="stop-color:#fd047b;stop-opacity:1"
         offset="0"
         id="stop2169" />
      <stop
         id="stop2171"
         offset="0.38674414"
         style="stop-color:#fd4e64;stop-opacity:1;" />
      <stop
         style="stop-color:#fe984e;stop-opacity:1"
         offset="1"
         id="stop2173" />
    </linearGradient>
  </defs>
  <metadata
     id="metadata5719">
    <rdf:RDF>
      <cc:Work
         rdf:about="">
        <dc:format>image/svg+xml</dc:format>
        <dc:type
           rdf:resource="http://purl.org/dc/dcmitype/StillImage" />
        <dc:title></dc:title>
      </cc:Work>
    </rdf:RDF>
  </metadata>
  <g
     id="layer1"
     transform="translate(-7.3791177,-61.972698)">
    <g
       transform="translate(22.877848)"
       aria-label="Oneplaybook"
       id="text58"
       style="font-style:normal;font-variant:normal;font-weight:bold;font-stretch:normal;font-size:130.528px;line-height:125%;font-family:Comfortaa;-inkscape-font-specification:'Comfortaa Bold';letter-spacing:0px;word-spacing:0px;writing-mode:lr-tb;fill:#333333;stroke:#000000;stroke-width:0.264583px;stroke-linecap:butt;stroke-linejoin:miter;stroke-opacity:1">
      <path
         d="m 262.06538,121.30196 q -7.90307,0 -14.46771,2.74058 -6.5009,2.74058 -12.04579,8.28547 -5.54489,5.54489 -8.28547,12.0458 -2.67685,6.5009 -2.67685,14.40396 0,15.55119 10.96232,26.5135 10.96231,10.96232 26.5135,10.96232 15.55118,0 26.5135,-10.96232 10.96231,-10.96231 10.96231,-26.5135 0,-15.48745 -10.96231,-26.44976 -11.02605,-11.02605 -26.5135,-11.02605 z m 50.9875,37.47581 q 0,21.09608 -14.97758,36.07366 -14.91385,14.91384 -36.00992,14.91384 -21.15982,0 -36.07366,-14.91384 -14.91384,-14.91384 -14.91384,-36.07366 0,-21.09607 14.91384,-36.00992 14.97758,-14.97758 36.07366,-14.97758 21.03234,0 36.00992,14.97758 7.52065,7.52066 11.21725,16.44347 3.76033,8.92281 3.76033,19.56645 z"
         style="font-style:normal;font-variant:normal;font-weight:bold;font-stretch:normal;font-size:130.528px;font-family:Comfortaa;-inkscape-font-specification:'Comfortaa Bold';fill:#333333;stroke-width:0.264583px"
         id="path60" />
      <path
         d="m 336.50713,144.94741 q 8.47667,-6.56464 19.94886,-6.56464 6.69211,0 12.68314,2.61311 6.05476,2.61311 10.64364,7.13825 4.58887,4.46141 7.26572,10.57991 2.67684,6.05477 2.67684,12.93808 v 31.42104 q 0,2.80432 -1.97577,4.78008 -1.91203,1.91203 -4.65261,1.91203 -2.80431,0 -4.78007,-1.91203 -1.91203,-1.97576 -1.91203,-4.78008 v -31.42104 q 0,-4.079 -1.59336,-7.71186 -1.59336,-3.63286 -4.33394,-6.3097 -2.67685,-2.74058 -6.3097,-4.33394 -3.63286,-1.59336 -7.71186,-1.59336 -4.14274,0 -7.7756,1.59336 -3.56912,1.52962 -6.3097,4.2702 -2.74058,2.74058 -4.33394,6.37344 -1.52962,3.63286 -1.52962,7.71186 v 31.42104 q 0,2.80432 -1.97577,4.78008 -1.91203,1.91203 -4.65261,1.91203 -2.80431,0 -4.78008,-1.91203 -1.91203,-1.97576 -1.91203,-4.78008 v -57.99828 q 0,-2.74057 1.91203,-4.71634 1.97577,-1.97577 4.78008,-1.97577 2.74058,0 4.65261,1.97577 1.97577,1.97577 1.97577,4.58887 z"
         style="font-style:normal;font-variant:normal;font-weight:bold;font-stretch:normal;font-size:130.528px;font-family:Comfortaa;-inkscape-font-specification:'Comfortaa Bold';fill:#333333;stroke-width:0.264583px"
         id="path62" />
      <path
         d="m 456.90136,167.44565 q -1.08349,-3.50539 -3.25046,-6.37344 -2.10323,-2.93178 -4.97128,-4.97128 -2.80431,-2.10323 -6.24597,-3.25045 -3.37792,-1.14722 -7.01078,-1.14722 -3.63286,0 -7.07451,1.14722 -3.44166,1.14722 -6.30971,3.25045 -2.86804,2.0395 -4.97128,4.97128 -2.10323,2.86805 -3.12298,6.37344 z m -2.86805,22.2433 q 2.86805,0 4.71634,1.91203 1.91204,1.84829 1.91204,4.71634 0,2.80431 -1.91204,4.78008 -9.87882,8.66787 -23.32678,8.66787 -14.78637,0 -25.23881,-10.45243 -10.45244,-10.45244 -10.45244,-25.23882 0,-14.78637 10.45244,-25.23881 10.45244,-10.45244 25.23881,-10.45244 14.65891,0 25.23882,10.45244 5.22621,5.16249 7.83932,11.53592 2.61311,6.30971 2.61311,13.70289 0,2.86805 -1.97576,4.78008 -1.91203,1.8483 -4.71635,1.8483 h -50.47762 q 1.08348,3.50539 3.18672,6.43717 2.10323,2.86805 4.90754,4.97128 2.86805,2.0395 6.24597,3.18672 3.44166,1.14722 7.13825,1.14722 4.20647,0 7.71186,-1.27469 3.50539,-1.27469 6.50091,-3.82406 1.91203,-1.59336 4.39767,-1.65709 z"
         style="font-style:normal;font-variant:normal;font-weight:bold;font-stretch:normal;font-size:130.528px;font-family:Comfortaa;-inkscape-font-specification:'Comfortaa Bold';fill:#333333;stroke-width:0.264583px"
         id="path64" />
      <path
         d="m 494.63212,174.07402 q 0,4.58888 1.72083,8.66788 1.78457,4.079 4.78008,7.13825 2.99552,2.99551 7.07452,4.78008 4.079,1.78456 8.79534,1.78456 4.65261,0 8.73161,-1.78456 4.079,-1.78457 7.07452,-4.84382 3.05925,-3.05925 4.78007,-7.07451 1.78457,-4.079 1.78457,-8.66788 0,-4.58887 -1.78457,-8.60414 -1.72082,-4.079 -4.78007,-7.13825 -2.99552,-3.05925 -7.07452,-4.84381 -4.079,-1.78456 -8.73161,-1.78456 -4.71634,0 -8.79534,1.78456 -4.079,1.78456 -7.07452,4.84381 -2.99551,2.99552 -4.78008,7.07452 -1.72083,4.079 -1.72083,8.66787 z m 22.37077,35.69125 q -12.81061,0 -22.37077,-7.83932 v 31.80345 q 0,2.86805 -1.97576,4.71634 -1.91203,1.91203 -4.71634,1.91203 -2.86805,0 -4.78008,-1.91203 -1.8483,-1.84829 -1.8483,-4.71634 v -59.65538 q 0,-14.78637 10.45244,-25.23881 10.45244,-10.45244 25.23881,-10.45244 14.65891,0 25.23881,10.45244 5.22622,5.16249 7.83933,11.53592 2.61311,6.30971 2.61311,13.70289 0,14.91385 -10.45244,25.23882 -5.35368,5.28995 -11.66339,7.90306 -6.24597,2.54937 -13.57542,2.54937 z"
         style="font-style:normal;font-variant:normal;font-weight:bold;font-stretch:normal;font-size:130.528px;font-family:Comfortaa;-inkscape-font-specification:'Comfortaa Bold';fill:#333333;stroke-width:0.264583px"
         id="path66" />
      <path
         d="m 562.25428,203.1369 v -88.65452 q 0,-2.80431 1.8483,-4.71634 1.91203,-1.97577 4.78008,-1.97577 2.86805,0 4.71634,1.97577 1.91203,1.91203 1.91203,4.71634 v 81.96241 h 3.05925 q 2.74058,0 4.65261,1.97577 1.97577,1.91203 1.97577,4.71634 0,2.74058 -1.97577,4.71634 -1.91203,1.91203 -4.65261,1.91203 h -9.75136 q -2.74057,0 -4.65261,-1.91203 -1.91203,-1.97576 -1.91203,-4.71634 z"
         style="font-style:normal;font-variant:normal;font-weight:bold;font-stretch:normal;font-size:130.528px;font-family:Comfortaa;-inkscape-font-specification:'Comfortaa Bold';fill:#333333;stroke-width:0.264583px"
         id="path68" />
      <path
         d="m 629.17538,151.70326 q -4.71635,0 -8.79535,1.78456 -4.079,1.78456 -7.07451,4.84381 -2.99552,2.99552 -4.78008,7.07452 -1.72083,4.079 -1.72083,8.66787 0,4.58888 1.72083,8.66788 1.78456,4.079 4.78008,7.13825 2.99551,2.99551 7.07451,4.78008 4.079,1.78456 8.79535,1.78456 4.65261,0 8.73161,-1.78456 4.079,-1.78457 7.07451,-4.84382 3.05925,-3.05925 4.78008,-7.07451 1.78456,-4.079 1.78456,-8.66788 0,-4.58887 -1.78456,-8.60414 -1.72083,-4.079 -4.78008,-7.13825 -2.99551,-3.05925 -7.07451,-4.84381 -4.079,-1.78456 -8.73161,-1.78456 z m 22.37076,51.43364 v -1.27469 q -4.78008,3.82406 -10.3887,5.86356 -5.60863,2.0395 -11.98206,2.0395 -14.78638,0 -25.23882,-10.45243 -10.45243,-10.45244 -10.45243,-25.23882 0,-14.78637 10.45243,-25.23881 10.45244,-10.45244 25.23882,-10.45244 14.6589,0 25.23881,10.45244 10.45244,10.45244 10.45244,25.23881 v 29.06288 q 0,2.74058 -1.97577,4.71634 -1.91203,1.91203 -4.65261,1.91203 -2.80431,0 -4.78008,-1.91203 -1.91203,-1.97576 -1.91203,-4.71634 z"
         style="font-style:normal;font-variant:normal;font-weight:bold;font-stretch:normal;font-size:130.528px;font-family:Comfortaa;-inkscape-font-specification:'Comfortaa Bold';fill:#333333;stroke-width:0.264583px"
         id="path70" />
      <path
         d="m 698.51839,203.1369 -22.94437,-55.13024 q -0.63735,-1.46589 -0.63735,-2.99551 0,-1.33842 0.50988,-2.54938 0.50987,-1.21095 1.40216,-2.10323 0.89228,-0.95602 2.10323,-1.46589 1.21095,-0.50988 2.61311,-0.50988 1.97576,0 3.69659,1.14722 1.72083,1.08349 2.61311,3.25046 l 17.90936,42.76576 17.90936,-42.89323 q 0.76481,-1.91203 2.16697,-3.05925 1.46589,-1.21096 4.079,-1.21096 1.40216,0 2.61311,0.50988 1.21095,0.50987 2.10323,1.46589 0.89228,0.89228 1.40216,2.10323 0.57361,1.21096 0.57361,2.54938 0,1.40216 -0.70108,2.99551 l -36.64726,87.88971 q -0.82855,1.97576 -2.54938,3.18672 -1.72083,1.27468 -3.76033,1.27468 -2.86804,0 -4.78008,-1.91203 -1.84829,-1.91203 -1.84829,-4.78008 0,-1.52962 0.63734,-2.93178 z"
         style="font-style:normal;font-variant:normal;font-weight:bold;font-stretch:normal;font-size:130.528px;font-family:Comfortaa;-inkscape-font-specification:'Comfortaa Bold';fill:#333333;stroke-width:0.264583px"
         id="path72" />
      <path
         d="m 782.1379,196.44479 q 4.65261,0 8.73161,-1.78456 4.079,-1.78457 7.07452,-4.84382 3.05925,-3.05925 4.78007,-7.07451 1.78457,-4.079 1.78457,-8.66788 0,-4.58887 -1.78457,-8.60414 -1.72082,-4.079 -4.78007,-7.13825 -2.99552,-3.05925 -7.07452,-4.84381 -4.079,-1.78456 -8.73161,-1.78456 -4.71634,0 -8.79534,1.78456 -4.079,1.78456 -7.07452,4.84381 -2.99551,2.99552 -4.78008,7.07452 -1.72083,4.079 -1.72083,8.66787 0,4.58888 1.72083,8.66788 1.78457,4.079 4.78008,7.13825 2.99552,2.99551 7.07452,4.78008 4.079,1.78456 8.79534,1.78456 z m -22.37077,-50.15895 q 9.49643,-7.90307 22.37077,-7.90307 14.65891,0 25.23881,10.45244 5.22622,5.16249 7.83933,11.53592 2.61311,6.30971 2.61311,13.70289 0,14.91385 -10.45244,25.23882 -10.5799,10.45243 -25.23881,10.45243 -14.78637,0 -25.23881,-10.45243 -10.45244,-10.45244 -10.45244,-25.23882 v -59.65537 q 0,-2.86805 1.8483,-4.71634 1.91203,-1.91204 4.78008,-1.91204 2.80431,0 4.71634,1.91204 1.97576,1.84829 1.97576,4.71634 z"
         style="font-style:normal;font-variant:normal;font-weight:bold;font-stretch:normal;font-size:130.528px;font-family:Comfortaa;-inkscape-font-specification:'Comfortaa Bold';fill:#333333;stroke-width:0.264583px"
         id="path74" />
      <path
         d="m 899.40911,174.07402 q 0,14.91385 -10.45244,25.23882 -10.57991,10.45243 -25.23881,10.45243 -14.78638,0 -25.23882,-10.45243 -10.45243,-10.45244 -10.45243,-25.23882 0,-14.78637 10.45243,-25.23881 10.45244,-10.45244 25.23882,-10.45244 14.6589,0 25.23881,10.45244 5.22622,5.22622 7.77559,11.53592 2.61311,6.30971 2.67685,13.70289 z m -35.69125,-22.37076 q -4.71635,0 -8.79535,1.78456 -4.079,1.78456 -7.07451,4.84381 -2.99552,2.99552 -4.78008,7.07452 -1.72083,4.079 -1.72083,8.66787 0,4.58888 1.72083,8.66788 1.78456,4.079 4.78008,7.13825 2.99551,2.99551 7.07451,4.78008 4.079,1.78456 8.79535,1.78456 4.65261,0 8.73161,-1.78456 4.079,-1.78457 7.07451,-4.84382 3.05925,-3.05925 4.78008,-7.07451 1.78456,-4.079 1.78456,-8.66788 0,-4.58887 -1.78456,-8.60414 -1.72083,-4.079 -4.78008,-7.13825 -2.99551,-3.05925 -7.07451,-4.84381 -4.079,-1.78456 -8.73161,-1.78456 z"
         style="font-style:normal;font-variant:normal;font-weight:bold;font-stretch:normal;font-size:130.528px;font-family:Comfortaa;-inkscape-font-specification:'Comfortaa Bold';fill:#333333;stroke-width:0.264583px"
         id="path76" />
      <path
         d="m 980.98912,174.07402 q 0,14.91385 -10.45243,25.23882 -10.57991,10.45243 -25.23882,10.45243 -14.78637,0 -25.23881,-10.45243 -10.45244,-10.45244 -10.45244,-25.23882 0,-14.78637 10.45244,-25.23881 10.45244,-10.45244 25.23881,-10.45244 14.65891,0 25.23882,10.45244 5.22621,5.22622 7.77559,11.53592 2.61311,6.30971 2.67684,13.70289 z m -35.69125,-22.37076 q -4.71634,0 -8.79534,1.78456 -4.079,1.78456 -7.07452,4.84381 -2.99551,2.99552 -4.78007,7.07452 -1.72083,4.079 -1.72083,8.66787 0,4.58888 1.72083,8.66788 1.78456,4.079 4.78007,7.13825 2.99552,2.99551 7.07452,4.78008 4.079,1.78456 8.79534,1.78456 4.65261,0 8.73161,-1.78456 4.079,-1.78457 7.07452,-4.84382 3.05925,-3.05925 4.78008,-7.07451 1.78456,-4.079 1.78456,-8.66788 0,-4.58887 -1.78456,-8.60414 -1.72083,-4.079 -4.78008,-7.13825 -2.99552,-3.05925 -7.07452,-4.84381 -4.079,-1.78456 -8.73161,-1.78456 z"
         style="font-style:normal;font-variant:normal;font-weight:bold;font-stretch:normal;font-size:130.528px;font-family:Comfortaa;-inkscape-font-specification:'Comfortaa Bold';fill:#333333;stroke-width:0.264583px"
         id="path78" />
      <path
         d="m 991.05917,203.07316 v -88.59078 q 0,-2.80431 1.91203,-4.71634 1.97577,-1.97577 4.78008,-1.97577 2.74062,0 4.65262,1.97577 1.9758,1.91203 1.9758,4.71634 v 49.71282 l 38.1131,-24.79268 q 1.5934,-1.01975 3.5691,-1.01975 1.4022,0 2.6131,0.50988 1.211,0.50987 2.1033,1.46589 0.8923,0.89228 1.4021,2.10323 0.5736,1.21096 0.5736,2.54938 0,3.56912 -2.5493,5.28995 l -26.7047,17.33575 27.4057,30.84744 q 1.8483,2.0395 1.8483,4.65261 0,1.33842 -0.5736,2.54937 -0.5098,1.21096 -1.4021,2.16697 -0.8923,0.89228 -2.1033,1.40216 -1.2109,0.50987 -2.6131,0.50987 -2.6768,0 -4.4614,-1.72082 l -29.4453,-33.07814 -7.7755,5.09875 v 23.0081 q 0,2.74058 -1.9758,4.71635 -1.912,1.97576 -4.65262,1.97576 -2.80431,0 -4.78008,-1.97576 -1.91203,-1.97577 -1.91203,-4.71635 z"
         style="font-style:normal;font-variant:normal;font-weight:bold;font-stretch:normal;font-size:130.528px;font-family:Comfortaa;-inkscape-font-specification:'Comfortaa Bold';fill:#333333;stroke-width:0.264583px"
         id="path80" />
    </g>
    <g
       transform="matrix(0.23370488,0,0,0.23370488,16.514177,47.782256)"
       id="layer1-9">
      <g
         id="layer1-2"
         transform="matrix(4.2789007,0,0,4.2789007,-64.965175,-275.30153)">
        <path
           style="opacity:1;fill:url(#linearGradient36);fill-opacity:1;fill-rule:nonzero;stroke-width:0.264583"
           d="m 58.208329,78.529755 h 89.958331 c 28.89704,0 52.16071,21.577905 52.16071,48.380955 v 97.51784 c 0,26.80305 -23.26367,48.38096 -52.16071,48.38096 H 58.208329 c -28.897033,0 -52.1607097,-21.57791 -52.1607097,-48.38096 v -97.51784 c 0,-26.80305 23.2636767,-48.380955 52.1607097,-48.380955 z"
           id="rect28" />
        <path
           id="path3751"
           d="m 103.18752,245.9732 c -10.826753,0 -20.950459,-2.39032 -30.089909,-6.74915 v -23.34077 c 8.43638,6.32731 18.84132,9.9831 30.089909,9.9831 27.69959,0 50.19678,-22.49717 50.19678,-50.19678 0,-27.6996 -22.49719,-50.19673 -50.19678,-50.19673 -3.374618,0 -6.749138,0.28113 -9.983103,0.98426 v 20.80984 c 3.093285,-1.12487 6.467925,-1.68728 9.983103,-1.68728 16.59158,0 30.08986,13.49829 30.08986,30.08991 0,16.59169 -13.49828,30.08997 -30.08986,30.08997 -16.029219,0 -29.246269,-12.65464 -30.089909,-28.40268 v -1.68729 0 c 0,-0.28112 0,-0.56241 0,-0.98425 v -39.22937 c -12.232848,9.13946 -20.106868,23.76261 -20.106868,40.21362 v 49.21253 c -12.37347,-12.65465 -20.10682,-30.08991 -20.10682,-49.21253 0,-28.12139 16.45107,-52.30586 40.213688,-63.5544 6.18662,-2.95276 12.93582,-5.06184 20.106806,-6.04611 3.233965,-0.42196 6.608485,-0.70303 9.983103,-0.70303 38.80752,0 70.30355,31.49597 70.30355,70.30354 0,38.80758 -31.49603,70.3036 -70.30355,70.3036 z m -9.983103,-70.3036 v 0 c 0,5.62433 4.499395,10.12372 9.983103,10.12372 5.62421,0 10.12367,-4.49939 10.12367,-9.9831 0,-5.62427 -4.49946,-9.98308 -10.12367,-9.98308 -5.343098,0 -9.701873,4.21819 -9.983103,9.56129 0,-0.14083 0,0.14083 0,0.28112 z"
           style="fill:#ffffff;stroke-width:1.40607" />
      </g>
    </g>
  </g>
</svg>
